<mxfile host="65bd71144e">
    <diagram id="5_3R-zzHEf52SLN2XJUo" name="第 1 页">
        <mxGraphModel dx="1315" dy="738" grid="1" gridSize="10" guides="1" tooltips="1" connect="1" arrows="1" fold="1" page="1" pageScale="1" pageWidth="1920" pageHeight="1200" math="0" shadow="0">
            <root>
                <mxCell id="0"/>
                <mxCell id="1" parent="0"/>
                <mxCell id="ZYxxZE-ww87QtJyCRkxr-98" value="LLM" style="rounded=0;whiteSpace=wrap;html=1;fillColor=#f5f5f5;strokeColor=#666666;fontColor=#333333;" parent="1" vertex="1">
                    <mxGeometry x="500" y="60" width="600" height="380" as="geometry"/>
                </mxCell>
                <mxCell id="ZYxxZE-ww87QtJyCRkxr-62" value="" style="rounded=0;whiteSpace=wrap;html=1;" parent="1" vertex="1">
                    <mxGeometry x="760" y="95" width="300" height="70" as="geometry"/>
                </mxCell>
                <mxCell id="ZYxxZE-ww87QtJyCRkxr-63" value="register" style="edgeStyle=orthogonalEdgeStyle;rounded=0;orthogonalLoop=1;jettySize=auto;html=1;entryX=0.5;entryY=1;entryDx=0;entryDy=0;dashed=1;" parent="1" source="ZYxxZE-ww87QtJyCRkxr-64" target="ZYxxZE-ww87QtJyCRkxr-62" edge="1">
                    <mxGeometry relative="1" as="geometry"/>
                </mxCell>
                <mxCell id="ZYxxZE-ww87QtJyCRkxr-64" value="" style="rounded=0;whiteSpace=wrap;html=1;" parent="1" vertex="1">
                    <mxGeometry x="850" y="227.5" width="120" height="192.5" as="geometry"/>
                </mxCell>
                <mxCell id="ZYxxZE-ww87QtJyCRkxr-65" style="edgeStyle=orthogonalEdgeStyle;rounded=0;orthogonalLoop=1;jettySize=auto;html=1;dashed=1;" parent="1" source="ZYxxZE-ww87QtJyCRkxr-67" target="ZYxxZE-ww87QtJyCRkxr-64" edge="1">
                    <mxGeometry relative="1" as="geometry"/>
                </mxCell>
                <mxCell id="ZYxxZE-ww87QtJyCRkxr-66" value="launch(optional)" style="edgeLabel;html=1;align=center;verticalAlign=middle;resizable=0;points=[];rounded=0;" parent="ZYxxZE-ww87QtJyCRkxr-65" vertex="1" connectable="0">
                    <mxGeometry x="0.0424" y="-4" relative="1" as="geometry">
                        <mxPoint as="offset"/>
                    </mxGeometry>
                </mxCell>
                <mxCell id="ZYxxZE-ww87QtJyCRkxr-67" value="" style="rounded=0;whiteSpace=wrap;html=1;" parent="1" vertex="1">
                    <mxGeometry x="572.5" y="232.5" width="120" height="187.5" as="geometry"/>
                </mxCell>
                <mxCell id="ZYxxZE-ww87QtJyCRkxr-68" style="edgeStyle=orthogonalEdgeStyle;rounded=0;orthogonalLoop=1;jettySize=auto;html=1;entryX=0;entryY=0.5;entryDx=0;entryDy=0;" parent="1" source="ZYxxZE-ww87QtJyCRkxr-69" target="ZYxxZE-ww87QtJyCRkxr-70" edge="1">
                    <mxGeometry relative="1" as="geometry"/>
                </mxCell>
                <mxCell id="ZYxxZE-ww87QtJyCRkxr-69" value="API Server&amp;nbsp;" style="rounded=0;whiteSpace=wrap;html=1;fillColor=#dae8fc;strokeColor=#6c8ebf;" parent="1" vertex="1">
                    <mxGeometry x="781.5" y="115" width="106" height="35" as="geometry"/>
                </mxCell>
                <mxCell id="ZYxxZE-ww87QtJyCRkxr-70" value="Controller" style="rounded=0;whiteSpace=wrap;html=1;fillColor=#dae8fc;strokeColor=#6c8ebf;" parent="1" vertex="1">
                    <mxGeometry x="927.5" y="115" width="116" height="35" as="geometry"/>
                </mxCell>
                <mxCell id="ZYxxZE-ww87QtJyCRkxr-71" value="LLM" style="rounded=0;whiteSpace=wrap;html=1;fillColor=#e1d5e7;strokeColor=#9673a6;" parent="1" vertex="1">
                    <mxGeometry x="582.5" y="110" width="100" height="40" as="geometry"/>
                </mxCell>
                <mxCell id="ZYxxZE-ww87QtJyCRkxr-73" value="" style="edgeStyle=orthogonalEdgeStyle;rounded=0;orthogonalLoop=1;jettySize=auto;html=1;dashed=1;" parent="1" source="ZYxxZE-ww87QtJyCRkxr-71" target="ZYxxZE-ww87QtJyCRkxr-62" edge="1">
                    <mxGeometry relative="1" as="geometry">
                        <mxPoint x="957.5" y="172.5" as="sourcePoint"/>
                    </mxGeometry>
                </mxCell>
                <mxCell id="ZYxxZE-ww87QtJyCRkxr-74" value="launch" style="edgeLabel;html=1;align=center;verticalAlign=middle;resizable=0;points=[];rounded=0;" parent="ZYxxZE-ww87QtJyCRkxr-73" vertex="1" connectable="0">
                    <mxGeometry x="-0.0783" y="3" relative="1" as="geometry">
                        <mxPoint as="offset"/>
                    </mxGeometry>
                </mxCell>
                <mxCell id="ZYxxZE-ww87QtJyCRkxr-75" style="edgeStyle=orthogonalEdgeStyle;rounded=0;orthogonalLoop=1;jettySize=auto;html=1;entryX=0.5;entryY=1;entryDx=0;entryDy=0;dashed=1;exitX=0.5;exitY=0;exitDx=0;exitDy=0;" parent="1" source="ZYxxZE-ww87QtJyCRkxr-67" target="ZYxxZE-ww87QtJyCRkxr-71" edge="1">
                    <mxGeometry relative="1" as="geometry"/>
                </mxCell>
                <mxCell id="ZYxxZE-ww87QtJyCRkxr-76" value="reference" style="edgeLabel;html=1;align=center;verticalAlign=middle;resizable=0;points=[];rounded=0;" parent="ZYxxZE-ww87QtJyCRkxr-75" vertex="1" connectable="0">
                    <mxGeometry x="-0.2203" relative="1" as="geometry">
                        <mxPoint as="offset"/>
                    </mxGeometry>
                </mxCell>
                <mxCell id="ZYxxZE-ww87QtJyCRkxr-77" value="Model1" style="rounded=0;whiteSpace=wrap;html=1;fillColor=#bac8d3;strokeColor=#23445d;" parent="1" vertex="1">
                    <mxGeometry x="597.5" y="247.5" width="75" height="30" as="geometry"/>
                </mxCell>
                <mxCell id="ZYxxZE-ww87QtJyCRkxr-79" value="worker2" style="rounded=0;whiteSpace=wrap;html=1;fillColor=#bac8d3;strokeColor=#23445d;" parent="1" vertex="1">
                    <mxGeometry x="865" y="287.5" width="90" height="30" as="geometry"/>
                </mxCell>
                <mxCell id="ZYxxZE-ww87QtJyCRkxr-82" value="Model2" style="rounded=0;whiteSpace=wrap;html=1;fillColor=#bac8d3;strokeColor=#23445d;" parent="1" vertex="1">
                    <mxGeometry x="597.5" y="287.5" width="75" height="30" as="geometry"/>
                </mxCell>
                <mxCell id="ZYxxZE-ww87QtJyCRkxr-83" value="Model3" style="rounded=0;whiteSpace=wrap;html=1;fillColor=#bac8d3;strokeColor=#23445d;" parent="1" vertex="1">
                    <mxGeometry x="597.5" y="327.5" width="75" height="30" as="geometry"/>
                </mxCell>
                <mxCell id="ZYxxZE-ww87QtJyCRkxr-84" value="......" style="rounded=0;whiteSpace=wrap;html=1;fillColor=#bac8d3;strokeColor=#23445d;" parent="1" vertex="1">
                    <mxGeometry x="597.5" y="370" width="75" height="30" as="geometry"/>
                </mxCell>
                <mxCell id="ZYxxZE-ww87QtJyCRkxr-94" value="Local LLM Service" style="text;html=1;strokeColor=none;fillColor=none;align=center;verticalAlign=middle;whiteSpace=wrap;rounded=0;fontStyle=1;fontSize=14;" parent="1" vertex="1">
                    <mxGeometry x="660" y="60" width="260" height="30" as="geometry"/>
                </mxCell>
                <mxCell id="ZYxxZE-ww87QtJyCRkxr-95" value="worker1" style="rounded=0;whiteSpace=wrap;html=1;fillColor=#bac8d3;strokeColor=#23445d;" parent="1" vertex="1">
                    <mxGeometry x="865" y="250" width="90" height="30" as="geometry"/>
                </mxCell>
                <mxCell id="ZYxxZE-ww87QtJyCRkxr-96" value="worker3" style="rounded=0;whiteSpace=wrap;html=1;fillColor=#bac8d3;strokeColor=#23445d;" parent="1" vertex="1">
                    <mxGeometry x="865" y="327.5" width="90" height="30" as="geometry"/>
                </mxCell>
                <mxCell id="ZYxxZE-ww87QtJyCRkxr-97" value="......" style="rounded=0;whiteSpace=wrap;html=1;fillColor=#bac8d3;strokeColor=#23445d;" parent="1" vertex="1">
                    <mxGeometry x="865" y="370" width="90" height="30" as="geometry"/>
                </mxCell>
            </root>
        </mxGraphModel>
    </diagram>
</mxfile>